<svg width="127" height="52" viewBox="0 0 127 52" fill="none" xmlns="http://www.w3.org/2000/svg">
<path fill-rule="evenodd" clip-rule="evenodd" d="M85.0325 16.1336C90.932 -5.2114 46.3638 -1.79559 18.502 22.437C44.3304 3.60186 84.8956 -4.77913 83.6729 15.5614" fill="#EB5C00"/>
<path fill-rule="evenodd" clip-rule="evenodd" d="M6.1246 27.0907H13.6977C13.0055 30.8822 18.3719 29.2385 17.1753 28.0433C15.7634 26.9977 13.9871 26.5964 12.3929 25.8722C11.3968 25.4199 10.4713 24.8416 9.75136 23.9015C8.18499 21.8578 8.76283 20.0895 10.4157 18.1765C13.1134 15.0546 17.6399 15.631 18.2972 15.4266C18.4109 15.4336 18.5275 15.441 18.6466 15.4475C22.335 15.6582 28.292 15.8523 26.8797 21.8233H19.5874C20.2789 19.2087 16.2025 19.8437 16.6144 21.263C18.4314 22.3423 21.3425 22.7159 23.2208 23.7527C24.8907 24.6747 25.2585 25.377 25.143 26.982C24.6942 33.2178 18.9296 33.7266 16.6704 34.0394C11.2475 34.3564 5.03966 33.4413 6.1246 27.0907V27.0907H6.1246Z" fill="#3399FF"/>
<path fill-rule="evenodd" clip-rule="evenodd" d="M46.3472 27.0907H53.9205C53.2283 30.8822 58.5947 29.2385 57.398 28.0433C55.9862 26.9977 54.2097 26.5964 52.6157 25.8722C51.6195 25.4199 50.6941 24.8416 49.974 23.9015C48.4078 21.8578 48.9856 20.0895 50.6383 18.1765C53.336 15.0546 57.8625 15.631 58.52 15.4266C58.6337 15.4336 58.7501 15.441 58.8694 15.4475C62.5578 15.6582 68.5148 15.8523 67.1025 21.8233H59.8101C60.5015 19.2087 56.4253 19.8437 56.837 21.263C58.6542 22.3423 61.5653 22.7159 63.4434 23.7527C65.1135 24.6747 65.4813 25.377 65.3658 26.982C64.917 33.2178 59.1524 33.7266 56.8932 34.0394C51.4703 34.3564 45.2624 33.4413 46.3472 27.0907V27.0907Z" fill="#3399FF"/>
<path fill-rule="evenodd" clip-rule="evenodd" d="M28.9558 39.6431L31.8167 31.7419C33.0504 33.9646 35.5329 34.2405 37.9236 33.7526C42.1257 32.8955 44.4106 30.8215 46.3537 27.159C47.8264 24.3843 48.7467 20.8187 46.9063 17.5085C44.0824 13.2501 38.0054 15.2675 36.4164 16.6679L36.5287 15.6594H29.2362L20.9902 39.6431H28.9558ZM35.014 27.7632C31.7608 26.2499 35.7998 19.9738 38.4358 20.7027C41.0353 20.9638 39.4833 27.8936 35.014 27.7632V27.7632Z" fill="#3399FF"/>
<path fill-rule="evenodd" clip-rule="evenodd" d="M82.6834 15.3109C87.6257 16.4401 88.8818 20.0487 88.5284 21.8793C88.7194 24.2142 86.5716 33.0383 77.7012 34.4104C75.3305 34.777 72.4789 34.6115 69.0634 33.6471C61.0238 28.7564 67.1759 17.0425 75.0654 15.3791C78.252 14.807 80.7502 14.8692 82.6834 15.3109V15.3109ZM68.0536 22.0474H74.8973L78.6556 15.9395L80.0579 22.1035H86.9577L80.7872 26.082L81.6848 32.1901L76.3556 28.7159L69.512 32.2462L72.4852 26.082L68.0536 22.0474V22.0474Z" fill="#3399FF"/>
<path fill-rule="evenodd" clip-rule="evenodd" d="M85.9844 34.0511L90.6242 20.867L88.2916 20.7927L89.5821 16.3318L92.1127 16.4061C93.1741 13.0571 95.5304 9.68531 99.5249 9.80099L105.188 9.96334L103.649 14.8448C102.002 14.7978 100.726 14.2588 100.002 16.4804H104.816L106.676 11.1767L114.292 11.2755L112.68 16.3318L115.408 16.4061L113.845 20.9414L111.117 20.8923L108.539 28.6456L111.438 28.7238L109.454 34.3987C106.85 34.543 98.4708 35.5197 100.205 30.0918L103.128 20.9414L98.4154 20.8666L93.8245 34.002" fill="#3399FF"/>
<path fill-rule="evenodd" clip-rule="evenodd" d="M10.0866 47.7163L8.48144 42.4709H7.65145L6.00391 47.7163H6.75454L7.11784 46.4428H8.97595L9.32849 47.7163H10.0866ZM18.4 47.7163V44.9572C18.4 44.6537 18.3124 44.4134 18.1363 44.2358C17.9613 44.0599 17.7229 43.9715 17.4216 43.9715C17.2153 43.9715 17.0343 44.0115 16.8797 44.093C16.7255 44.1731 16.5808 44.304 16.446 44.4835V42.4709H15.8189V47.7163H16.446V45.6043C16.446 45.2036 16.5031 44.9108 16.6171 44.7276C16.7304 44.5443 16.9127 44.4521 17.1615 44.4521C17.3827 44.4521 17.5385 44.5178 17.6295 44.65C17.7208 44.7808 17.7667 45.0249 17.7667 45.3808V47.7163H18.4V47.7163ZM42.9272 42.4709L44.5323 47.7163H43.7742L43.4217 46.4428H41.5636L41.2003 47.7163H40.4496L42.0972 42.4709H42.9272V42.4709ZM60.2477 47.7163V44.9572C60.2477 44.6537 60.16 44.4134 59.9839 44.2358C59.8092 44.0599 59.5706 43.9715 59.2693 43.9715C59.063 43.9715 58.8819 44.0115 58.7274 44.093C58.5731 44.1731 58.4285 44.304 58.2936 44.4835V42.4709H57.6666V47.7163H58.2936V45.6043C58.2936 45.2036 58.3508 44.9108 58.4648 44.7276C58.5781 44.5443 58.7603 44.4521 59.0092 44.4521C59.2303 44.4521 59.3862 44.5178 59.4772 44.65C59.5684 44.7808 59.6143 45.0249 59.6143 45.3808V47.7163H60.2477V47.7163ZM80.7145 42.4709L82.3196 47.7163H81.5616L81.2089 46.4428H79.3509L78.9874 47.7163H78.2368L79.8845 42.4709H80.7145V42.4709ZM101.19 47.7163V44.9572C101.19 44.6537 101.102 44.4134 100.926 44.2358C100.751 44.0599 100.513 43.9715 100.211 43.9715C100.005 43.9715 99.8239 44.0115 99.6693 44.093C99.5151 44.1731 99.3705 44.304 99.2358 44.4835V42.4709H98.6087V47.7163H99.2358V45.6043C99.2358 45.2036 99.2928 44.9108 99.4069 44.7276C99.5201 44.5443 99.7025 44.4521 99.9513 44.4521C100.172 44.4521 100.328 44.5178 100.419 44.65C100.511 44.7808 100.556 45.0249 100.556 45.3808V47.7163H101.19V47.7163ZM20.8114 43.1424V42.4734H20.2063V43.1424H20.8114V43.1424ZM62.6591 42.4734V43.1424H62.0539V42.4734H62.6591ZM54.8198 43.3232V44.0599H54.2648V44.5117H54.8198V46.9223C54.8198 47.2283 54.8831 47.4423 55.0083 47.5636C55.1344 47.6837 55.3523 47.7444 55.6607 47.7444C55.7338 47.7444 55.814 47.7395 55.8991 47.7284C55.9851 47.7176 56.0765 47.7019 56.1736 47.6801L56.1773 47.2064H56.1554C56.0227 47.2164 55.9281 47.2213 55.8711 47.2213C55.7094 47.2213 55.5986 47.1832 55.5378 47.1093C55.4772 47.0341 55.447 46.8983 55.447 46.7013V44.5117H56.1773V44.0599H55.447V43.0247L54.8198 43.3232V43.3232ZM8.05733 43.289L8.79488 45.8239H7.29179L8.05733 43.289V43.289ZM42.5031 43.289L43.2406 45.8239H41.7377L42.5031 43.289ZM81.0278 45.8239L80.2904 43.289L79.5249 45.8239H81.0278ZM68.9546 48.1256H69.6664C69.6712 48.2916 69.7213 48.4228 69.816 48.5211C69.9106 48.6194 70.0372 48.6694 70.1937 48.6694C70.4237 48.6694 70.5852 48.61 70.6786 48.491C70.7724 48.373 70.8196 48.1507 70.8196 47.827V47.3001C70.6897 47.4735 70.5522 47.6011 70.4099 47.6826C70.2678 47.7638 70.1124 47.8052 69.9437 47.8052C69.523 47.8052 69.2158 47.647 69.0198 47.3302C68.8243 47.0136 68.7259 46.516 68.7259 45.8383C68.7259 45.1938 68.8243 44.7202 69.0198 44.4178C69.2158 44.1156 69.5205 43.964 69.9363 43.964C70.1223 43.964 70.2863 44.0005 70.432 44.0743C70.5766 44.1474 70.7055 44.259 70.8196 44.4084L70.8547 44.0599H71.4881C71.4773 44.1424 71.4674 44.2358 71.4611 44.3391C71.4553 44.4422 71.4528 44.565 71.4528 44.7081V47.9116C71.4528 48.14 71.4359 48.3147 71.4029 48.436C71.3701 48.5587 71.317 48.6658 71.2424 48.7578C71.1359 48.894 70.9994 48.9911 70.832 49.0517C70.6642 49.1124 70.4492 49.1425 70.1855 49.1425C69.8061 49.1425 69.5097 49.0542 69.296 48.8779C69.0818 48.7008 68.969 48.4509 68.9546 48.1256V48.1256ZM107.16 44.2518C107.15 44.1668 107.143 44.0999 107.138 44.0529H107.765L107.826 44.5322C107.893 44.3501 108.003 44.2106 108.16 44.1123C108.317 44.014 108.511 43.964 108.743 43.964C108.756 43.964 108.774 43.9654 108.799 43.9679C108.824 43.9703 108.844 43.9715 108.861 43.9715V44.6148C108.839 44.6148 108.812 44.6136 108.776 44.6111C108.74 44.6086 108.716 44.6075 108.701 44.6075C108.386 44.6075 108.161 44.6755 108.026 44.8114C107.893 44.9486 107.826 45.1781 107.826 45.4997V47.7163H107.199V44.6719C107.199 44.6426 107.185 44.5029 107.16 44.2518V44.2518ZM48.5931 47.7163V44.9572C48.5931 44.6537 48.5055 44.4134 48.3294 44.2358C48.1546 44.0599 47.916 43.9715 47.6147 43.9715C47.4084 43.9715 47.2273 44.0129 47.0714 44.0941C46.9161 44.1764 46.7739 44.3065 46.6462 44.4835L46.6172 44.0599H45.9766C45.9877 44.1764 45.9973 44.282 46.0034 44.377C46.0097 44.4716 46.0122 44.5587 46.0122 44.6368V47.7163H46.6392V45.6043C46.6392 45.2036 46.6962 44.9108 46.8104 44.7276C46.9235 44.5443 47.1059 44.4521 47.3547 44.4521C47.5759 44.4521 47.7316 44.5178 47.8226 44.65C47.914 44.7808 47.9597 45.0249 47.9597 45.3808V47.7163H48.5931V47.7163ZM67.0726 44.9572V47.7163H66.4393V45.3808C66.4393 45.0249 66.3934 44.7808 66.3021 44.65C66.2111 44.5178 66.0552 44.4521 65.8341 44.4521C65.5853 44.4521 65.403 44.5443 65.2897 44.7276C65.1757 44.9108 65.1186 45.2036 65.1186 45.6043V47.7163H64.4915V44.6368C64.4915 44.5587 64.489 44.4716 64.4829 44.377C64.4766 44.282 64.4672 44.1764 64.4561 44.0599H65.0967L65.1257 44.4835C65.2534 44.3065 65.3956 44.1764 65.551 44.0941C65.7069 44.0129 65.8879 43.9715 66.0942 43.9715C66.3955 43.9715 66.6339 44.0599 66.8089 44.2358C66.985 44.4134 67.0726 44.6537 67.0726 44.9572V44.9572ZM86.3804 47.7163V44.9572C86.3804 44.6537 86.2928 44.4134 86.1167 44.2358C85.9418 44.0599 85.7034 43.9715 85.402 43.9715C85.1958 43.9715 85.0147 44.0129 84.8588 44.0941C84.7034 44.1764 84.5613 44.3065 84.4335 44.4835L84.4045 44.0599H83.7639C83.775 44.1764 83.7845 44.282 83.7908 44.377C83.7969 44.4716 83.7994 44.5587 83.7994 44.6368V47.7163H84.4264V45.6043C84.4264 45.2036 84.4834 44.9108 84.5975 44.7276C84.7109 44.5443 84.8931 44.4521 85.1419 44.4521C85.3631 44.4521 85.519 44.5178 85.6099 44.65C85.7012 44.7808 85.7471 45.0249 85.7471 45.3808V47.7163H86.3804V47.7163ZM14.1656 46.4792H13.5347C13.5278 46.7209 13.462 46.914 13.3393 47.0573C13.2152 47.2006 13.0523 47.2721 12.8482 47.2721C12.587 47.2721 12.3998 47.1675 12.2868 46.959C12.174 46.7502 12.1178 46.3953 12.1178 45.8954C12.1178 45.3808 12.1764 45.0216 12.2931 44.8177C12.4084 44.6136 12.6052 44.5117 12.8837 44.5117C13.0874 44.5117 13.2458 44.5711 13.3586 44.6901C13.4715 44.8077 13.5278 44.9741 13.5278 45.1875H14.1474V45.1088C14.1474 44.7702 14.0283 44.4971 13.7902 44.2894C13.5505 44.0817 13.2372 43.9784 12.8482 43.9784C12.3658 43.9784 12.0169 44.1292 11.802 44.4302C11.5858 44.7313 11.4775 45.2193 11.4775 45.8954C11.4775 46.5717 11.5858 47.0586 11.802 47.3572C12.0169 47.6556 12.3658 47.8052 12.8482 47.8052C13.2566 47.8052 13.5762 47.6883 13.8084 47.4566C14.039 47.2246 14.1581 46.8983 14.1656 46.4792V46.4792ZM24.3898 47.0899C24.5078 46.9698 24.6123 46.5704 24.6123 46.5704H25.2394C25.22 46.9565 25.0947 47.26 24.864 47.4773C24.6317 47.6958 24.3196 47.8052 23.9256 47.8052C23.4371 47.8052 23.0862 47.6556 22.8733 47.3572C22.6608 47.0586 22.5551 46.5593 22.5551 45.8603C22.5551 45.2036 22.6646 44.7252 22.8833 44.4266C23.1006 44.128 23.4483 43.9784 23.9256 43.9784C24.3792 43.9784 24.7107 44.0974 24.9223 44.3357C25.1335 44.5736 25.2394 44.9497 25.2394 45.4646V46.0337H23.2027V46.2439C23.2027 46.6044 23.2598 46.8653 23.3755 47.028C23.4909 47.1907 23.6743 47.2721 23.9256 47.2721C24.118 47.2721 24.272 47.2114 24.3898 47.0899ZM32.8136 47.0899C32.9315 46.9698 33.0059 46.7963 33.0361 46.5704H33.6631C33.6437 46.9565 33.5185 47.26 33.2877 47.4773C33.0555 47.6958 32.7434 47.8052 32.3494 47.8052C31.8609 47.8052 31.51 47.6556 31.2971 47.3572C31.0845 47.0586 30.9788 46.5593 30.9788 45.8603C30.9788 45.2036 31.0884 44.7252 31.307 44.4266C31.5244 44.128 31.8721 43.9784 32.3494 43.9784C32.803 43.9784 33.1345 44.0974 33.346 44.3357C33.5573 44.5736 33.6631 44.9497 33.6631 45.4646V46.0337H31.6264V46.2439C31.6264 46.6044 31.6836 46.8653 31.7992 47.028C31.9147 47.1907 32.0981 47.2721 32.3494 47.2721C32.5417 47.2721 32.6958 47.2114 32.8136 47.0899V47.0899ZM104.692 47.0899C104.81 46.9698 104.885 46.7963 104.915 46.5704H105.542C105.522 46.9565 105.397 47.26 105.167 47.4773C104.934 47.6958 104.622 47.8052 104.228 47.8052C103.74 47.8052 103.389 47.6556 103.176 47.3572C102.963 47.0586 102.858 46.5593 102.858 45.8603C102.858 45.2036 102.967 44.7252 103.186 44.4266C103.403 44.128 103.751 43.9784 104.228 43.9784C104.682 43.9784 105.013 44.0974 105.225 44.3357C105.436 44.5736 105.542 44.9497 105.542 45.4646V46.0337H103.505V46.2439C103.505 46.6044 103.562 46.8653 103.678 47.028C103.793 47.1907 103.977 47.2721 104.228 47.2721C104.42 47.2721 104.575 47.2114 104.692 47.0899ZM112.015 47.0899C112.133 46.9698 112.208 46.7963 112.238 46.5704H112.865C112.845 46.9565 112.72 47.26 112.49 47.4773C112.257 47.6958 111.945 47.8052 111.551 47.8052C111.063 47.8052 110.712 47.6556 110.499 47.3572C110.286 47.0586 110.18 46.5593 110.18 45.8603C110.18 45.2036 110.29 44.7252 110.509 44.4266C110.726 44.128 111.074 43.9784 111.551 43.9784C112.005 43.9784 112.336 44.0974 112.548 44.3357C112.759 44.5736 112.865 44.9497 112.865 45.4646V46.0337H110.828V46.2439C110.828 46.6044 110.885 46.8653 111.001 47.028C111.116 47.1907 111.3 47.2721 111.551 47.2721C111.743 47.2721 111.898 47.2114 112.015 47.0899V47.0899ZM20.8114 44.0599V47.7163H20.2063V44.0599H20.8114ZM29.6234 44.0599L28.4771 47.7163H27.6972L26.5513 44.0599H27.2805L27.8575 46.1663C27.9051 46.3409 27.9477 46.5204 27.9853 46.7038C28.0242 46.8885 28.0568 47.078 28.0862 47.2721C28.1614 46.9396 28.2477 46.608 28.3461 46.2752C28.3618 46.2207 28.3729 46.1856 28.3776 46.1688L28.9645 44.0599H29.6234V44.0599ZM52.4935 44.0599H53.1701L51.4858 49.1H50.8662L51.2683 47.7163L50.0117 44.0599H50.7496L51.6246 46.9516L52.4935 44.0599V44.0599ZM62.6591 47.7163V44.0599H62.0539V47.7163H62.6591ZM90.2809 44.0599H90.9575L89.273 49.1H88.6534L89.0556 47.7163L87.799 44.0599H88.5369L89.412 46.9516L90.2809 44.0599V44.0599ZM94.4164 45.3721L93.7968 47.7163H93.0238L92.0735 44.0599H92.7249L93.2198 46.1663C93.2644 46.3553 93.3036 46.5342 93.3351 46.7002C93.3677 46.8678 93.3946 47.0305 93.4153 47.1894C93.4565 47.0242 93.5029 46.824 93.5563 46.5886C93.6096 46.3544 93.6439 46.2133 93.6583 46.1663L94.2491 44.0599H95L95.5771 46.2088C95.5916 46.2583 95.6342 46.4552 95.7061 46.7985C95.7387 46.9623 95.7669 47.0924 95.7874 47.1894C95.8045 47.0717 95.8297 46.9297 95.864 46.767C95.8979 46.603 95.943 46.4077 95.9975 46.1794L96.5175 44.0599H97.1582L96.1897 47.7163H95.3998L94.7934 45.3684C94.781 45.3214 94.7583 45.2157 94.7227 45.0505C94.6863 44.8854 94.6475 44.6925 94.6049 44.4691C94.5698 44.6606 94.5358 44.8345 94.5029 44.9898C94.4714 45.145 94.4421 45.2726 94.4164 45.3721V45.3721ZM23.2065 45.5604H24.6198V45.2483C24.6198 44.9729 24.5626 44.7652 24.4481 44.623C24.3353 44.4811 24.1675 44.4096 23.9463 44.4096C23.6997 44.4096 23.5164 44.5017 23.397 44.6863C23.2767 44.8708 23.2139 45.1624 23.2065 45.5604V45.5604ZM31.6302 45.5604H33.0435V45.2483C33.0435 44.9729 32.9864 44.7652 32.8719 44.623C32.7591 44.4811 32.5913 44.4096 32.3701 44.4096C32.1234 44.4096 31.9402 44.5017 31.8208 44.6863C31.7005 44.8708 31.6377 45.1624 31.6302 45.5604V45.5604ZM103.509 45.5604H104.922V45.2483C104.922 44.9729 104.865 44.7652 104.751 44.623C104.638 44.4811 104.47 44.4096 104.249 44.4096C104.002 44.4096 103.819 44.5017 103.699 44.6863C103.579 44.8708 103.516 45.1624 103.509 45.5604ZM110.832 45.5604H112.245V45.2483C112.245 44.9729 112.188 44.7652 112.074 44.623C111.961 44.4811 111.793 44.4096 111.572 44.4096C111.325 44.4096 111.142 44.5017 111.023 44.6863C110.902 44.8708 110.84 45.1624 110.832 45.5604V45.5604ZM70.1041 44.4302C69.8379 44.4302 69.6494 44.5347 69.539 44.7445C69.4282 44.9547 69.3737 45.3309 69.3737 45.8747C69.3737 46.3702 69.4295 46.727 69.5412 46.9441C69.6532 47.1626 69.8329 47.2721 70.0822 47.2721C70.346 47.2721 70.539 47.1606 70.6629 46.9383C70.787 46.7151 70.8478 46.3602 70.8478 45.8747C70.8478 45.3577 70.7906 44.9873 70.6737 44.7639C70.5572 44.5418 70.3679 44.4302 70.1041 44.4302V44.4302ZM36.1284 47.7163V46.909H35.4343V47.7163H36.1284ZM73.9156 46.909V47.7163H73.2216V46.909H73.9156ZM115.33 47.7163V46.909H114.636V47.7163H115.33Z" fill="#BDBDBD"/>
<path fill-rule="evenodd" clip-rule="evenodd" d="M117.139 11.4141V8.30908H118.714C118.932 8.30908 119.117 8.37991 119.27 8.52108C119.423 8.66274 119.515 8.85919 119.546 9.11107C119.546 9.16188 119.543 9.21616 119.538 9.27425C119.532 9.33217 119.521 9.39059 119.504 9.45017C119.478 9.52944 119.436 9.6064 119.376 9.68137C119.317 9.75617 119.229 9.8222 119.113 9.87847C119.269 9.95509 119.369 10.0547 119.412 10.1777C119.456 10.3006 119.48 10.4271 119.482 10.5573V10.7227C119.48 10.8441 119.484 10.9583 119.497 11.0641C119.51 11.1702 119.56 11.2531 119.648 11.3125V11.4141H119.147C119.127 11.3575 119.112 11.2997 119.102 11.2403C119.092 11.1809 119.086 11.12 119.083 11.058C119.08 11.0297 119.078 10.9999 119.077 10.9689C119.075 10.9376 119.075 10.9082 119.075 10.8796V10.8329C119.069 10.6522 119.045 10.4893 119.003 10.3453C118.96 10.201 118.819 10.1118 118.578 10.0781H117.542V11.4141H117.139V11.4141ZM117.542 9.70917H118.612C118.621 9.71182 118.629 9.71331 118.637 9.71331H118.663C118.793 9.71331 118.903 9.65936 118.992 9.55211C119.081 9.44454 119.127 9.32572 119.13 9.18935V9.17015C119.127 9.05431 119.078 8.94607 118.983 8.84578C118.889 8.74549 118.731 8.68807 118.51 8.674H117.542V9.70917V9.70917Z" fill="white"/>
<path d="M115.51 9.88979C115.51 11.3907 116.728 12.6075 118.23 12.6075C119.732 12.6075 120.95 11.3907 120.95 9.88979C120.95 8.38925 119.732 7.17236 118.23 7.17236C116.728 7.17236 115.51 8.38925 115.51 9.88979Z" stroke="white" stroke-width="0.0875197"/>
</svg>
